<svg viewBox="0 0 200 200" xmlns="http://www.w3.org/2000/svg">
  <path fill="hsl(266 85% 58%)" d="M15.2,-30.9C21.5,-22.6,29.8,-22.3,39.9,-18.5C49.9,-14.7,61.7,-7.3,64,1.3C66.2,9.9,58.8,19.8,53.2,31.4C47.6,43,43.9,56.3,35.4,65.6C26.8,75,13.4,80.3,4.5,72.6C-4.5,64.8,-8.9,44,-17,34.4C-25.1,24.8,-36.8,26.4,-48.5,22.6C-60.2,18.7,-71.9,9.3,-72.8,-0.5C-73.7,-10.4,-63.8,-20.7,-53.1,-26.4C-42.4,-32,-30.9,-32.9,-22,-39.7C-13,-46.5,-6.5,-59.3,-1,-57.5C4.4,-55.7,8.8,-39.3,15.2,-30.9Z" transform="translate(100 100)" />
</svg>