<svg viewBox="0 0 200 200" xmlns="http://www.w3.org/2000/svg">
  <path fill="hsl(220 91% 54%)" d="M32.4,-52.6C46.8,-47.9,66.5,-48.8,66.6,-41C66.7,-33.2,47.2,-16.6,45.7,-0.9C44.1,14.8,60.5,29.6,59.9,36.6C59.3,43.5,41.7,42.5,28.8,45.9C16,49.2,8,56.8,2.9,51.9C-2.3,46.9,-4.5,29.3,-15.2,24.7C-25.9,20.2,-45.1,28.7,-47.6,26.7C-50.1,24.8,-36,12.4,-32.1,2.2C-28.3,-8,-34.8,-15.9,-33.6,-20C-32.3,-24.1,-23.3,-24.4,-16.4,-33.4C-9.5,-42.4,-4.7,-60.1,2.1,-63.9C9,-67.6,18.1,-57.2,32.4,-52.6Z" transform="translate(100 100)" />
</svg>